<svg xmlns="http://www.w3.org/2000/svg" viewBox="0 0 737.56 245.01"><defs><style>.cls-1{fill:#c7087f;}.cls-2{fill:#f07f10;}</style></defs><title>logo_virke</title><g id="Layer_2" data-name="Layer 2"><g id="Layer_1_copy" data-name="Layer 1 copy"><path class="cls-1" d="M236.85,60.38c0-4.77-3-7.75-8.1-7.75H126.8c-5,0-8.34,3-9.3,7.7L86.78,204.21H78.45L47.81,60.46c-1.71-5.53-4.27-7.83-10-7.83L6,52.65C2,52.65-.86,55.77.24,60.4L38.41,237.1c1.72,5.34,4.65,7.71,10.65,7.71h68.5c5.58,0,8.27-2.92,9.48-7.73L158.54,91.9h32.18V237.06c0,4.45,2.23,7.75,7.56,7.75h30.94c5.32,0,7.63-3.3,7.63-7.75V60.38"/><path class="cls-1" d="M338.64,134H314.69V92h24.43c18.9,0,25.94,6.73,25.94,20.23,0,17.51-7.26,21.78-26.42,21.78m-5.36,39,34.93,64.29c2.43,4.29,5.66,7.75,12.62,7.75H412c6.68,0,8.11-4.4,6.54-7.82l-38.43-68M307,245c5.32,0,7.65-3.3,7.65-7.75V173h18.59l34.93,64.29c2.43,4.29,5.66,7.75,12.62,7.75H412c6.68,0,8.11-4.4,6.54-7.82l-38.43-68c20.61-9.08,30-29.75,30-56.66,0-41-20.5-59.71-63.59-59.71h-70.7c-4.83,0-7.23,3.24-7.23,7.57V237.26c0,4.45,2.23,7.75,7.55,7.75Z"/><path class="cls-1" d="M580.33,52.63H546.54c-4.52,0-6.85,2.09-8.58,4.94l-38,77.18H483.79V60.4c0-5.68-3.24-7.77-7.53-7.77H445.54c-5.5,0-7.91,3.53-7.91,7.83v176.6c0,4.31,2.18,7.76,7.88,7.76h31.56c4.63,0,6.72-3.8,6.72-7.76V170.4h16.64L537,237.13c2.31,3.89,4.75,7.69,12.55,7.69h32.67c5.32,0,6.89-4.27,4.79-8l-47-83.47,45.82-91.24c2.26-4.1.72-9.52-5.46-9.52"/><path class="cls-1" d="M730.07,205.38H652.91V167.93h27.26c5.85,0,10.53-1.3,13.72-6.14l10.16-21.49c2.34-4.05.61-9.1-5.57-9.1H652.91V92h74.57c4.15,0,6.08-2.88,6.08-6.5V58.41c0-3.83-2.82-5.78-6.8-5.78H613c-6.26,0-6.25,6-6.25,6V237c0,4.72,2.33,7.81,7.36,7.81H729.86c5.66,0,7.7-3.3,7.7-7.59V211.9c0-4.25-1.9-6.52-7.49-6.52"/><path class="cls-2" d="M234.37,30.88l10.45-22C247.45,4.51,245.17,0,239,0H207.93a9.11,9.11,0,0,0-8.57,4.94L188.53,27.4c-2.82,4.92.14,9.32,5.19,9.32h26.64c7.47,0,11.37-1.64,14-5.84"/></g></g></svg>